<svg height="56" viewBox="0 0 86 56" width="86" xmlns="http://www.w3.org/2000/svg"><g fill="none" fill-rule="evenodd"><path d="m0 0h86v56h-86z"/><g fill="#fff" transform="translate(16 9)"><path d="m11.9824712 13h-11.9824712c0 2.8859327 2.85946283 2.9274741 2.85946283 2.9274741h8.16990467l-11.0293675 18.3141416c0 2.7497966 2.79137588 2.7573324 2.79137588 2.7573324h11.81229172c0-2.7306353-2.6211964-2.7573324-2.6211964-2.7573324h-9.12300837l11.74420477-18.3141416c0-2.9274741-2.6211964-2.9274741-2.6211964-2.9274741"/><path d="m34.2999901 34.2416195s.0278175 2.7573324-2.8145289 2.7573324l-9.1668326-.0005612c-.2802551-.0089797-2.6624241-.1616348-2.6624241-2.7567712zm.0278023-10.6548892v2.7574839h-14.6716031v-2.7574839zm-2.8423388-10.5867303c2.6815582 0 2.8423843 2.9274741 2.8423843 2.9274741h-14.671641c0-2.6285807 2.6892455-2.9274741 2.6892455-2.9274741z"/><path d="m50.9483899 15.925547v16.4258078s-.0256746 1.8697027-1.6677896 1.8697027l-5.9517013.0186311s-1.6737349 0-1.6737349-1.9035946l.0104137-15.2083465s0-1.2022005 1.6324587-1.2022005zm2.7573324 18.3141416v-34.2396886h-2.7573324v12.9980729h-9.1912847c-2.7294993 0-2.7571052 2.9274741-2.7571052 2.9274741v18.3141416c0 2.7513493 2.6551641 2.7573324 2.6551641 2.7573324h9.327345c2.8530253 0 2.7232132-2.7573324 2.7232132-2.7573324z" fill-rule="nonzero"/></g><path d="m20.344 17.4c1.096 0 1.93-.198 2.502-.594s.858-.962.858-1.698c0-.52-.136-.958-.408-1.314s-.648-.61-1.128-.762c.352-.184.626-.436.822-.756s.294-.684.294-1.092c0-.672-.274-1.204-.822-1.596s-1.334-.588-2.358-.588h-4.104v8.4zm-.48-4.956h-1.932v-1.98h1.932c.48 0 .844.082 1.092.246s.372.41.372.738-.124.576-.372.744-.612.252-1.092.252zm.336 3.492h-2.268v-2.076h2.268c1.032 0 1.548.348 1.548 1.044 0 .352-.13.612-.39.78s-.646.252-1.158.252zm11.484 1.464v-1.56h-4.572v-1.944h3.9v-1.512h-3.9v-1.824h4.416v-1.56h-6.348v8.4zm5.232 0v-6.816h2.688v-1.584h-7.32v1.584h2.688v6.816zm4.62 0 .744-1.8h3.9l.744 1.8h2.04l-3.756-8.4h-1.92l-3.744 8.4zm4.032-3.276h-2.664l1.332-3.216z" fill="#f0f8ff" fill-rule="nonzero" opacity=".64"/></g></svg>